<?xml version="1.0" encoding="UTF-8"?>
<svg xmlns="http://www.w3.org/2000/svg" version="1.1" viewBox="0 0 368 319">
  <defs>
    <style>
      .cls-1 {
        fill: #3d87cf;
      }

      .cls-2 {
        fill: #fac705;
      }

      .cls-3 {
        fill: #f3632e;
      }

      .cls-4 {
        fill: #66c557;
      }
    </style>
  </defs>
  <!-- Generator: Adobe Illustrator 28.6.0, SVG Export Plug-In . SVG Version: 1.2.0 Build 709)  -->
  <g>
    <g id="_레이어_1" data-name="레이어_1">
      <g>
        <path class="cls-1" d="M187.1,173c18.1-.9,34,.4,44,3.1l-23,57.5c-17.7-4.1-25.7-5-43.5-5.4l22.5-55.1h0v-.1Z"/>
        <path class="cls-2" d="M261.2,294.7c-11.1-7.7-25.3-15.9-37.8-20.6l36-89.8c15.5,5.5,28.9,14.1,35.2,21.4s.9,2,.5,3l-33.9,86h0Z"/>
        <path class="cls-4" d="M305.9,175.7c-10.7-9.2-23.4-15.1-34.9-19.7l23.4-57c12.6,3.3,29.3,13.4,36.8,22.6l-21.5,53.2c-.6,1.5-2.5,1.9-3.7.9h-.1Z"/>
        <path class="cls-3" d="M220.4,88.9c18.6-.6,24.3-.4,43.1,2.3l-22,55.6c-12.7-3.3-31.6-5.2-42.8-3.8l21.7-54h0v-.1Z"/>
        <path class="cls-1" d="M69.3,190.9l-17.4-.3c1.2-3.5,2.7-7.4,4.2-10.7h17.5c-1.3,3.6-2.8,7.4-4.4,11"/>
        <path class="cls-1" d="M96.2,205.4h-21.9c0-.1,6.1-15,6.1-15,7.2,0,14.5,0,21.8.3l-6,14.8"/>
        <path class="cls-1" d="M132.6,201.7c-2.5,5.8-4.7,12.1-7.3,18l-24.7-.3,7.3-17.8,24.7.2"/>
        <path class="cls-1" d="M46,173h-12.6c1-3,2.3-6.3,3.6-9.2,4.3,0,8.6-.3,12.9-.1l-3.9,9.3"/>
        <path class="cls-1" d="M23.1,154.5c-3.3,0-6.6.4-9.8.3l3.2-7.7c3.3-.2,6.5-.3,9.8-.3l-3.1,7.7"/>
        <path class="cls-1" d="M80.8,162.3l-17.4-.2,4.2-10.7c5.9.2,11.8-.2,17.7,0l-4.5,10.9"/>
        <path class="cls-1" d="M107.6,177h-21.7l5.9-14.9h21.9l-6.1,14.8"/>
        <path class="cls-1" d="M136.9,191l-24.7-.5,7.2-17.5,24.7.3-7.1,17.8"/>
        <path class="cls-1" d="M58,143.4c-4.2-.1-8.6.2-12.9,0l3.9-9.6,12.6.3c-.9,3-2.2,6.3-3.6,9.3"/>
        <path class="cls-1" d="M35,125l-9.8.2,3-7.7c3.2-.3,6.6-.3,9.9-.3l-3.1,7.7"/>
        <path class="cls-3" d="M104.5,103.6h-17.5l4.3-11h17.7l-4.5,10.9"/>
        <path class="cls-3" d="M109.6,118.3l5.9-15h21.8l-5.9,15h-21.8"/>
        <path class="cls-3" d="M160.9,131.3l-24.7-.2,7.1-17.8h24.7l-7.1,18"/>
        <path class="cls-3" d="M81.8,84.6c-4.1.2-8.5,0-12.7,0l3.6-9.5c4.1-.3,8.5.2,12.7,0l-3.6,9.3"/>
        <path class="cls-3" d="M58.7,66c-3.3,0-6.5.4-9.8.3l3.2-7.7,9.7-.5-3.1,7.9"/>
        <path class="cls-3" d="M116.3,74.4c-5.8,0-11.7,0-17.5-.3l4.3-10.7h17.6l-4.4,11"/>
        <path class="cls-3" d="M143.1,89.1h-21.9l6.1-14.9h21.9l-6.1,14.9"/>
        <path class="cls-3" d="M172.2,103.3l-24.6-.3,7.1-17.9,24.7.2-7.3,18"/>
        <path class="cls-3" d="M93.5,55.3h-12.8l3.8-9.6c4.3.2,8.5,0,12.8.3l-3.8,9.3"/>
        <path class="cls-3" d="M70.6,36.7l-9.8.4,3-7.7c3.3-.4,6.6-.2,9.8-.4l-3,7.7"/>
        <path d="M58.3,220.7c-6.9,0-13.8,0-20.8-.2l4.9-12.3c6.9,0,13.9.2,20.9.1l-5.1,12.3"/>
        <path d="M82.9,8.9l-11.8.3,3.4-8.8c4,0,8-.3,11.9-.3l-3.6,8.8"/>
        <path d="M106.4,26.2c-5.2-.2-10.5-.1-15.8-.3l4.1-10.1c5.3.2,10.6,0,15.9.3l-4.2,10.2"/>
        <path d="M185.5,75.2h-29.4l8.5-21.5,29.4.3-8.6,21.2"/>
        <path d="M130.4,60.3l6.4-16.2h25.9l-6.5,16.3-25.8-.2"/>
        <path d="M129.1,45.5l-20.8-.2,4.8-12.2c6.9,0,13.9-.3,20.9,0l-4.9,12.3"/>
        <path d="M35.9,96.4l3.4-8.7,12-.4-3.5,8.9-11.9.2"/>
        <path d="M70.7,114.3l-15.8-.2,4.1-10.1c5.3.2,10.5,0,15.8.3l-4.2,10.1"/>
        <path d="M150,163l-29.4-.2,8.5-21.2,29.5.3-8.5,21.2"/>
        <path d="M120.7,148.5h-25.7l-.2-.2,6.6-16.1h25.9l-6.6,16.3"/>
        <path d="M93.5,133.7l-20.8-.2,4.8-12.2h21.1l-5.1,12.3"/>
        <path d="M12.1,184.4c-3.9-.1-7.9.3-11.8,0l3.4-8.4c4-.3,8-.3,12.1-.4l-3.7,8.8"/>
        <path d="M35.2,202.6h-15.9l3.9-10c5.4,0,10.7-.2,16,0l-4.1,10.1"/>
        <path d="M114.7,250.4l-29.3-.4,8.6-21.2,29.3.3-8.6,21.3"/>
        <path d="M59.7,235.6l6.6-16.3,25.8.2-6.6,16.4-25.8-.2"/>
      </g>
      <path d="M219.3,272.2s-37.1-16.6-104.1-12.9c6.9-16.7,80-197,82-201.7,60.2-8.2,105.3,9.8,105.3,9.8,0,0-34.2,83.3-35.7,86.9-4.8-2-12.4-4.5-20.1-6.4.4-1,16.7-42.8,23.6-59.9-20.1-4.7-45.9-3.6-53.4-3.3-10.4,25.5-42.1,104.5-59.4,147.3,14.6.6,41,2.9,53.3,7.1,3.7-9.7,13.8-32.2,26.8-66.4-21.6-5.9-49.5-3.8-49.6-3.8l8.7-21.8c39.6-1.8,68.4,11.3,68.4,11.3l-46,113.8h.2Z"/>
      <path d="M260.7,47.6"/>
      <path d="M306.3,68.7l-10.8,26.4c17.9,5.2,33.6,15.5,40.3,26-7.5,20.1-22.2,54.5-22.3,54.8l-.3.6c-.7,1.8-1.7,2.9-2.9,3.4-1.6.6-3.8.4-6.3-.7,0,0-11.6-10-34.9-19.4l-8.2,20.2c22.9,9.1,28.8,14.3,37.3,22.3s2.4,4.6,1.5,7.2c0,0-30.1,74.5-35.2,87.7,12.1,8.7,20.9,21.7,20.9,21.7l38.8-96h0c2.9-7.9,4.8-14.3-1.3-24.1,8.5-.4,13.9-5.4,16.5-13.6,1.3-4,28.3-72.9,28.3-72.9,0,0-19.3-27.7-61.7-43.6,0,0,.3,0,.3,0Z"/>
    </g>
  </g>
</svg>