<?xml version="1.0" encoding="UTF-8"?>
<svg id="_레이어_1" data-name="레이어 1" xmlns="http://www.w3.org/2000/svg" version="1.1" viewBox="0 0 612 409">
  <defs>
    <style>
      .cls-1 {
        fill: #3d87cf;
      }

      .cls-1, .cls-2, .cls-3, .cls-4, .cls-5, .cls-6 {
        stroke-width: 0px;
      }

      .cls-2 {
        fill: #f3632e;
      }

      .cls-3, .cls-5 {
        fill: #000;
      }

      .cls-4 {
        fill: #66c557;
      }

      .cls-5 {
        fill-rule: evenodd;
      }

      .cls-6 {
        fill: #fac705;
      }
    </style>
  </defs>
  <g>
    <path class="cls-1" d="M342.19,173.07c18.08-.93,33.96.42,43.96,3.06l-23.05,57.52c-17.72-4.1-25.74-5.02-43.46-5.44l22.54-55.13Z"/>
    <path class="cls-6" d="M416.25,294.8c-11.11-7.72-25.25-15.94-37.84-20.61l36.02-89.8c15.54,5.52,28.91,14.05,35.25,21.37.72.83.9,1.99.5,3.02l-33.93,86.02Z"/>
    <path class="cls-4" d="M461.01,175.75c-10.7-9.25-23.39-15.1-34.91-19.74l23.36-56.97c12.56,3.33,29.29,13.36,36.77,22.63l-21.48,53.2c-.62,1.5-2.52,1.93-3.74.88Z"/>
    <path class="cls-2" d="M375.48,88.99c18.63-.59,24.29-.39,43.13,2.25l-22.04,55.56c-12.7-3.32-31.55-5.15-42.81-3.8l21.71-54.01Z"/>
    <path class="cls-1" d="M224.4,190.92l-17.38-.3c1.18-3.51,2.71-7.44,4.19-10.74l17.55-.04c-1.27,3.59-2.79,7.49-4.36,11.08"/>
    <path class="cls-1" d="M251.25,205.43l-21.91-.13,6.13-14.89c7.23-.04,14.55,0,21.82.25l-6.05,14.76"/>
    <path class="cls-1" d="M287.63,201.75c-2.54,5.84-4.69,12.09-7.32,17.97l-24.65-.3,7.27-17.85,24.7.17"/>
    <path class="cls-1" d="M201.02,173.06l-12.64-.09c1.01-2.92,2.28-6.17,3.59-9.09,4.31-.04,8.63-.3,12.94-.13l-3.89,9.3"/>
    <path class="cls-1" d="M178.17,154.55c-3.26.09-6.55.42-9.81.34l3.17-7.7c3.26-.17,6.51-.34,9.77-.34l-3.13,7.7"/>
    <path class="cls-1" d="M235.88,162.34l-17.42-.21,4.19-10.7c5.92.17,11.84-.17,17.72.04l-4.48,10.87"/>
    <path class="cls-1" d="M262.62,177.06l-21.74-.09,5.88-14.8c7.32-.04,14.63-.09,21.95.09l-6.09,14.8"/>
    <path class="cls-1" d="M291.96,191.03l-24.74-.55,7.19-17.55,24.66.25-7.1,17.85"/>
    <path class="cls-1" d="M213.03,143.5c-4.23-.13-8.58.21-12.86-.04l3.89-9.6,12.6.34c-.93,3-2.24,6.3-3.64,9.3"/>
    <path class="cls-1" d="M190.08,125.1l-9.77.21,3-7.65c3.17-.3,6.6-.3,9.9-.3l-3.13,7.74"/>
    <path class="cls-2" d="M259.59,103.66l-17.47-.13,4.27-10.91c5.88.09,11.76,0,17.68.13l-4.48,10.91"/>
    <path class="cls-2" d="M264.67,118.39l5.88-14.97h21.78l-5.88,14.97h-21.78"/>
    <path class="cls-2" d="M315.99,131.38l-24.74-.17,7.15-17.8,24.7.09-7.1,17.89"/>
    <path class="cls-2" d="M236.85,84.61c-4.14.21-8.5,0-12.73.09l3.55-9.47c4.14-.34,8.54.17,12.73.04l-3.55,9.35"/>
    <path class="cls-2" d="M213.79,66.1c-3.26.09-6.51.42-9.81.3l3.21-7.7,9.68-.47-3.09,7.87"/>
    <path class="cls-2" d="M271.39,74.43c-5.84,0-11.67-.09-17.51-.34l4.31-10.7c5.88.09,11.76-.13,17.63.04l-4.44,10.99"/>
    <path class="cls-2" d="M298.13,89.16c-7.27,0-14.59.13-21.91-.09l6.09-14.89c7.32-.09,14.59.04,21.91.09l-6.09,14.89"/>
    <path class="cls-2" d="M327.25,103.34l-24.57-.25,7.15-17.89,24.74.17-7.32,17.97"/>
    <path class="cls-2" d="M248.54,55.38h-12.77l3.76-9.6c4.31.21,8.54,0,12.81.25l-3.81,9.35"/>
    <path class="cls-2" d="M225.7,36.76l-9.81.42,3.04-7.74c3.26-.38,6.55-.21,9.81-.42l-3.04,7.74"/>
    <path class="cls-3" d="M213.36,220.8c-6.89.09-13.83.04-20.76-.17l4.95-12.26c6.94,0,13.91.21,20.93.13l-5.12,12.31"/>
    <path class="cls-3" d="M237.93,8.94l-11.8.25,3.43-8.75c3.98-.09,7.95-.25,11.93-.25l-3.55,8.75"/>
    <path class="cls-3" d="M261.43,26.26c-5.24-.17-10.49-.13-15.77-.34l4.14-10.15c5.29.17,10.57-.09,15.86.25l-4.23,10.23"/>
    <path class="cls-3" d="M340.56,75.3l-29.39-.13,8.54-21.36,29.43.25-8.58,21.23"/>
    <path class="cls-3" d="M285.46,60.36l6.39-16.15,25.92.04-6.51,16.28-25.8-.17"/>
    <path class="cls-3" d="M284.16,45.53l-20.81-.17,4.82-12.18c6.94,0,13.91-.25,20.93,0l-4.95,12.35"/>
    <path class="cls-3" d="M190.95,96.41l3.43-8.67,11.97-.42-3.51,8.92-11.88.17"/>
    <path class="cls-3" d="M225.81,114.38l-15.77-.21,4.14-10.15c5.29.17,10.53-.09,15.82.25l-4.19,10.11"/>
    <path class="cls-3" d="M305.06,163.1l-29.39-.21,8.46-21.23,29.47.25-8.54,21.19"/>
    <path class="cls-3" d="M275.72,148.59l-25.67-.09-.21-.09,6.55-16.11,25.88.04-6.55,16.24"/>
    <path class="cls-3" d="M248.54,133.76l-20.76-.21,4.78-12.18c7.02-.09,14.08-.04,21.1.09l-5.12,12.31"/>
    <path class="cls-3" d="M167.13,184.42c-3.93-.13-7.87.25-11.8,0l3.43-8.37c4.02-.34,8.03-.25,12.09-.42l-3.72,8.8"/>
    <path class="cls-3" d="M190.3,202.61l-15.9.09,3.93-10.11c5.37,0,10.66-.17,16.03-.04l-4.06,10.06"/>
    <path class="cls-3" d="M269.76,250.46l-29.26-.42,8.58-21.19,29.26.3-8.58,21.31"/>
    <path class="cls-3" d="M214.77,235.63l6.55-16.32,25.75.17-6.55,16.37-25.75-.21"/>
  </g>
  <path class="cls-3" d="M147.71,342.51h23.49v-14.64h-23.49v14.64Z"/>
  <g>
    <path class="cls-3" d="M57.25,406.52h23.91l11.06-44.95,11.44,44.95h23.42l22.62-78.64h-20.06l-12.05,45.32-11.8-45.62h-21.78l-11.5,46.06-11.67-46.06h-26.1l22.5,78.95"/>
    <path class="cls-3" d="M175.89,406.55l23.21-.04v-36.43c0-5.53,2.54-8.42,6.66-8.42s6.08,3.59,6.08,9.11v35.78l23.46-.04v-38.98c0-14.99-5.69-21.9-20.1-21.9-8.23,0-14.39,3.46-17.78,10.03v-8.42l-21.49.05-.03,59.25"/>
    <path class="cls-3" d="M378.71,406.55h17.31l8.88-33.11,8.07,33.11h17.56l19.89-59.29h-16.81l-8.85,29.86-7.75-29.86h-18.16l-7.51,29.05-8.58-29.05h-23.74l19.69,59.29"/>
    <path class="cls-3" d="M147.71,406.52h23.49v-59.27h-23.49v59.27Z"/>
    <path class="cls-3" d="M441.47,389.51c3.51,11.8,14.99,18.33,33.22,18.33,20.12,0,32.37-9.04,32.37-21.07,0-4.91-2.01-9.15-5.88-12.36-4.75-3.89-10.37-4.68-17.24-5.83-11.87-1.94-17.79-1.48-17.73-5.16.03-1.96,2.37-4.1,7.12-4.1,5.86,0,9.61,1.93,11.87,5.6l19.23-3.11c-4.24-10.17-14.61-15.77-29.85-15.77-19,0-29.99,8.69-29.99,20.36,0,5.03,2.61,9.84,7.12,13.05,5.62,3.99,11.87,4.91,18.99,6.06,8.87,1.48,13.62,1.06,13.99,4.34.28,2.28-3.11,4.01-8.99,4.01-8.25,0-12.86-2.3-13.99-6.64l-20.24,2.28"/>
    <path class="cls-5" d="M275.43,381.49c0,2.91.25,5.02-1.48,7.59-1.36,1.98-2.97,3.04-5.44,3.04-7.68,0-8.74-9.34-8.72-14.61.03-10.98,3.21-17.4,8.85-17.41,1.98,0,4.2.83,5.32,2.35,1.61,1.87,1.48,4.66,1.48,7.01v12.03ZM299.57,406.5v-80.14h-23.84v25.34c-3.83-3.62-9.02-6.08-15.1-6.08-19.06,0-25.56,16-25.56,31.31s6.62,30.73,24.81,30.73c7.93,0,13.25-2.58,16.83-9.11h.25v7.95h22.61"/>
    <path class="cls-5" d="M333.38,393.43c-5.81,0-9.59-5.33-9.59-16.42s3.74-16.42,9.57-16.42,9.57,5.32,9.57,16.42-3.73,16.42-9.55,16.42ZM333.34,408.34c20.27,0,33.75-12.59,33.75-31.33s-13.48-31.35-33.75-31.35-33.73,12.49-33.73,31.35,13.58,31.33,33.73,31.33"/>
    <g>
      <path class="cls-5" d="M539.59,325.63c13.42,0,22.47,8.74,22.47,20.89,0,10.9-10.24,20.65-23.14,20.65-12.1,0-20.88-8.48-20.88-19.74,0-12.79,9.31-21.79,21.55-21.79h0ZM564.31,359.06v1.52c0,25.45-9.71,38.87-26.99,38.87-8.51,0-15.03-4.04-19.69-12.15l-9.29,3.16c4.91,11.66,15.01,17.73,29.9,17.73,22.08,0,37.23-18.37,37.23-48.62,0-27.23-13.69-42.81-36.17-42.81-10.08,0-19.53,4.06-25.52,11.02-4.91,5.7-7.58,12.8-7.58,19.64,0,16.58,13.16,28.86,30.45,28.86,12.22,0,22.34-6.2,27.66-17.22"/>
      <path class="cls-3" d="M611.56,408.82h-11.05v-70.39c-2.66,2.54-6.15,5.07-10.46,7.61-4.32,2.54-8.19,4.44-11.63,5.71v-10.68c6.18-2.91,11.58-6.42,16.2-10.56,4.62-4.13,7.9-8.14,9.82-12.03h7.12v90.33Z"/>
    </g>
  </g>
  <g>
    <path class="cls-3" d="M24.33,292.7v-5.59l20.18-.03v17.68c-3.1,2.47-6.29,4.33-9.59,5.57-3.29,1.25-6.67,1.87-10.14,1.87-4.68,0-8.93-1-12.76-3.01-3.82-2-6.71-4.9-8.66-8.69s-2.93-8.03-2.93-12.71.97-8.96,2.91-12.98c1.94-4.02,4.73-7,8.37-8.95s7.83-2.92,12.58-2.92c3.45,0,6.56.56,9.34,1.67,2.78,1.12,4.97,2.67,6.55,4.66,1.58,1.99,2.78,4.59,3.61,7.8l-5.69,1.56c-.71-2.43-1.6-4.33-2.67-5.72-1.06-1.39-2.58-2.5-4.55-3.33s-4.16-1.25-6.56-1.25c-2.88,0-5.37.44-7.48,1.32-2.1.88-3.8,2.03-5.09,3.46-1.29,1.43-2.29,3-3.01,4.71-1.21,2.95-1.82,6.14-1.82,9.59,0,4.25.73,7.8,2.19,10.66,1.46,2.86,3.59,4.98,6.39,6.37,2.8,1.39,5.76,2.08,8.91,2.08,2.73,0,5.4-.53,8-1.58s4.57-2.17,5.92-3.36v-8.87h-14.01Z"/>
    <path class="cls-3" d="M53.09,270.47v-6.73h5.85v6.73h-5.85ZM53.09,311.39v-34.52h5.85v34.52h-5.85Z"/>
    <path class="cls-3" d="M67.78,311.39v-34.52h5.27v5.23c1.34-2.45,2.58-4.06,3.72-4.84,1.14-.78,2.39-1.17,3.75-1.17,1.97,0,3.98.63,6.01,1.88l-2.02,5.43c-1.43-.84-2.86-1.27-4.29-1.27-1.28,0-2.43.38-3.44,1.15-1.02.77-1.74,1.84-2.18,3.2-.65,2.08-.98,4.35-.98,6.83v18.07h-5.85Z"/>
    <path class="cls-3" d="M88.94,314.25l5.69.84c.24,1.75.9,3.03,1.98,3.83,1.45,1.08,3.43,1.62,5.95,1.62,2.71,0,4.8-.54,6.27-1.62,1.47-1.08,2.47-2.6,2.99-4.55.3-1.19.44-3.69.42-7.51-2.56,3.01-5.74,4.52-9.56,4.52-4.75,0-8.42-1.71-11.02-5.13s-3.9-7.53-3.9-12.32c0-3.29.6-6.33,1.79-9.12,1.19-2.78,2.92-4.93,5.18-6.45,2.26-1.52,4.92-2.27,7.98-2.27,4.07,0,7.43,1.65,10.08,4.94v-4.16h5.4v29.84c0,5.37-.55,9.18-1.64,11.42-1.09,2.24-2.83,4.01-5.2,5.31-2.37,1.3-5.29,1.95-8.76,1.95-4.12,0-7.44-.93-9.98-2.78s-3.76-4.64-3.67-8.37ZM93.78,293.51c0,4.53.9,7.83,2.7,9.91,1.8,2.08,4.05,3.12,6.76,3.12s4.94-1.03,6.76-3.1c1.82-2.07,2.73-5.31,2.73-9.73s-.94-7.41-2.81-9.56c-1.87-2.14-4.13-3.22-6.78-3.22s-4.81,1.06-6.63,3.17c-1.82,2.11-2.73,5.25-2.73,9.41Z"/>
    <path class="cls-3" d="M127.07,270.47v-6.73h5.85v6.73h-5.85ZM127.07,311.39v-34.52h5.85v34.52h-5.85Z"/>
    <path class="cls-3" d="M141.76,311.39v-34.52h5.27v5.23c1.34-2.45,2.58-4.06,3.72-4.84,1.14-.78,2.39-1.17,3.75-1.17,1.97,0,3.98.63,6.01,1.88l-2.02,5.43c-1.43-.84-2.86-1.27-4.29-1.27-1.28,0-2.43.38-3.44,1.15-1.02.77-1.74,1.84-2.18,3.2-.65,2.08-.98,4.35-.98,6.83v18.07h-5.85Z"/>
    <path class="cls-3" d="M161.65,301.09l5.79-.91c.32,2.32,1.23,4.09,2.71,5.33,1.48,1.24,3.56,1.85,6.22,1.85s4.68-.55,5.98-1.64c1.3-1.09,1.95-2.38,1.95-3.85,0-1.32-.57-2.36-1.72-3.12-.8-.52-2.8-1.18-5.98-1.98-4.29-1.08-7.26-2.02-8.92-2.81-1.66-.79-2.91-1.89-3.77-3.28-.86-1.4-1.28-2.94-1.28-4.63,0-1.54.35-2.96,1.06-4.27.7-1.31,1.66-2.4,2.88-3.27.91-.67,2.15-1.24,3.72-1.71,1.57-.47,3.25-.7,5.05-.7,2.71,0,5.09.39,7.13,1.17,2.05.78,3.56,1.84,4.53,3.17.98,1.33,1.65,3.11,2.02,5.35l-5.72.78c-.26-1.78-1.01-3.16-2.26-4.16-1.25-1-3.01-1.5-5.28-1.5-2.69,0-4.6.44-5.75,1.33-1.15.89-1.72,1.93-1.72,3.12,0,.76.24,1.44.72,2.05.48.63,1.22,1.15,2.24,1.56.58.22,2.31.71,5.17,1.5,4.14,1.1,7.03,2.01,8.66,2.71,1.64.7,2.92,1.73,3.85,3.07.93,1.34,1.4,3.01,1.4,5s-.57,3.79-1.71,5.51c-1.14,1.72-2.78,3.06-4.92,4s-4.57,1.41-7.28,1.41c-4.49,0-7.9-.93-10.25-2.79s-3.85-4.63-4.5-8.29Z"/>
    <path class="cls-3" d="M195.09,294.13c0-6.39,1.78-11.13,5.33-14.2,2.97-2.56,6.59-3.83,10.86-3.83,4.75,0,8.62,1.55,11.64,4.66,3.01,3.11,4.52,7.41,4.52,12.89,0,4.44-.67,7.94-2,10.48s-3.27,4.52-5.82,5.93c-2.55,1.41-5.33,2.11-8.34,2.11-4.83,0-8.74-1.55-11.72-4.65-2.98-3.1-4.47-7.56-4.47-13.39ZM201.1,294.13c0,4.42.96,7.73,2.89,9.93,1.93,2.2,4.36,3.3,7.28,3.3s5.32-1.1,7.25-3.32c1.93-2.21,2.89-5.58,2.89-10.11,0-4.27-.97-7.5-2.91-9.7s-4.35-3.3-7.23-3.3-5.35,1.09-7.28,3.28c-1.93,2.19-2.89,5.49-2.89,9.91Z"/>
    <path class="cls-3" d="M235.68,311.39v-29.97h-5.17v-4.55h5.17v-3.67c0-2.32.21-4.04.62-5.17.56-1.52,1.55-2.75,2.97-3.69,1.42-.94,3.41-1.41,5.96-1.41,1.65,0,3.47.19,5.46.58l-.88,5.1c-1.21-.22-2.36-.33-3.45-.33-1.78,0-3.03.38-3.77,1.14-.74.76-1.1,2.18-1.1,4.26v3.18h6.73v4.55h-6.73v29.97h-5.82Z"/>
    <path class="cls-3" d="M265.55,306.16l.85,5.17c-1.65.35-3.12.52-4.42.52-2.12,0-3.77-.34-4.94-1.01-1.17-.67-1.99-1.55-2.47-2.65-.48-1.09-.72-3.4-.72-6.91v-19.86h-4.29v-4.55h4.29v-8.55l5.82-3.51v12.06h5.88v4.55h-5.88v20.18c0,1.67.1,2.74.31,3.22s.54.86,1.01,1.14c.47.28,1.13.42,2,.42.65,0,1.51-.08,2.57-.23Z"/>
  </g>
  <path class="cls-3" d="M374.38,272.23s-37.1-16.58-104.13-12.86c6.91-16.68,79.96-196.99,82.05-201.72,60.21-8.2,105.33,9.85,105.33,9.85,0,0-34.25,83.32-35.67,86.92-4.82-2.04-12.4-4.54-20.06-6.43.42-1.04,16.74-42.84,23.64-59.88-20.13-4.73-45.89-3.62-53.35-3.29-10.42,25.51-42.05,104.53-59.37,147.28,14.63.59,40.99,2.87,53.27,7.09,3.66-9.69,13.75-32.16,26.81-66.44-21.64-5.86-49.47-3.82-49.57-3.81l8.71-21.82c39.56-1.79,68.39,11.32,68.39,11.32l-46.03,113.79Z"/>
  <path class="cls-3" d="M312.8,311.39"/>
  <path class="cls-3" d="M415.77,47.67"/>
  <path class="cls-3" d="M461.37,68.73l-10.76,26.41c17.94,5.25,33.62,15.47,40.33,25.95-7.53,20.07-22.16,54.47-22.33,54.81l-.28.62c-.75,1.76-1.74,2.9-2.94,3.38-1.55.62-3.84.37-6.27-.69,0,0-11.6-10.05-34.87-19.37l-8.24,20.22c22.9,9.05,28.81,14.33,37.33,22.28,2.2,2.05,2.43,4.57,1.46,7.23,0,0-30.07,74.49-35.17,87.71,12.11,8.7,20.94,21.66,20.94,21.66l38.81-96.05.05-.14c2.88-7.75,4.77-14.21-1.28-23.92,8.53-.38,13.86-5.43,16.53-13.64,1.29-3.98,28.32-72.87,28.32-72.87,0,0-19.33-27.71-61.65-43.59Z"/>
</svg>